<svg xmlns="http://www.w3.org/2000/svg" width="15" height="15" viewBox="0 0 15 15" fill="none">
  <g clip-path="url(#clip0_1207_733)">
    <path fill-rule="evenodd" clip-rule="evenodd" d="M2.5 3.125C2.5 2.62772 2.69754 2.15081 3.04917 1.79917C3.40081 1.44754 3.87772 1.25 4.375 1.25H10.625C11.1223 1.25 11.5992 1.44754 11.9508 1.79917C12.3025 2.15081 12.5 2.62772 12.5 3.125V13.125C12.4999 13.2427 12.4666 13.358 12.4039 13.4576C12.3412 13.5572 12.2516 13.6371 12.1455 13.6881C12.0393 13.739 11.921 13.7589 11.804 13.7456C11.6871 13.7322 11.5763 13.6861 11.4844 13.6125L10.3125 12.675L9.14062 13.6125C9.02057 13.7087 8.86926 13.7572 8.71566 13.7488C8.56205 13.7404 8.41695 13.6756 8.30813 13.5669L7.5 12.7587L6.69187 13.5669C6.58313 13.6757 6.43807 13.7406 6.28446 13.7491C6.13086 13.7576 5.97951 13.7092 5.85938 13.6131L4.6875 12.675L3.51562 13.6125C3.42373 13.6861 3.31293 13.7322 3.19598 13.7456C3.07902 13.7589 2.96067 13.739 2.85454 13.6881C2.74842 13.6371 2.65884 13.5572 2.59611 13.4576C2.53339 13.358 2.50007 13.2427 2.5 13.125V3.125ZM4.375 2.5C4.20924 2.5 4.05027 2.56585 3.93306 2.68306C3.81585 2.80027 3.75 2.95924 3.75 3.125V11.825L4.29688 11.3875C4.40773 11.2987 4.5455 11.2504 4.6875 11.2504C4.8295 11.2504 4.96727 11.2987 5.07812 11.3875L6.20312 12.2875L7.05813 11.4331C7.17533 11.316 7.33427 11.2501 7.5 11.2501C7.66573 11.2501 7.82467 11.316 7.94187 11.4331L8.79625 12.2875L9.92188 11.3875C10.0327 11.2987 10.1705 11.2504 10.3125 11.2504C10.4545 11.2504 10.5923 11.2987 10.7031 11.3875L11.25 11.825V3.125C11.25 2.95924 11.1842 2.80027 11.0669 2.68306C10.9497 2.56585 10.7908 2.5 10.625 2.5H4.375ZM5 5.625C5 5.45924 5.06585 5.30027 5.18306 5.18306C5.30027 5.06585 5.45924 5 5.625 5H9.375C9.54076 5 9.69973 5.06585 9.81694 5.18306C9.93415 5.30027 10 5.45924 10 5.625C10 5.79076 9.93415 5.94973 9.81694 6.06694C9.69973 6.18415 9.54076 6.25 9.375 6.25H5.625C5.45924 6.25 5.30027 6.18415 5.18306 6.06694C5.06585 5.94973 5 5.79076 5 5.625ZM5.625 7.5C5.45924 7.5 5.30027 7.56585 5.18306 7.68306C5.06585 7.80027 5 7.95924 5 8.125C5 8.29076 5.06585 8.44973 5.18306 8.56694C5.30027 8.68415 5.45924 8.75 5.625 8.75H7.5C7.66576 8.75 7.82473 8.68415 7.94194 8.56694C8.05915 8.44973 8.125 8.29076 8.125 8.125C8.125 7.95924 8.05915 7.80027 7.94194 7.68306C7.82473 7.56585 7.66576 7.5 7.5 7.5H5.625Z" fill="#486FD8"/>
  </g>
  <defs>
    <clipPath id="clip0_1207_733">
      <rect width="15" height="15" fill="white"/>
    </clipPath>
  </defs>
</svg>