<svg xmlns="http://www.w3.org/2000/svg" width="23" height="23" viewBox="0 0 23 23" fill="none">
  <path d="M14.9004 11.9826C15.8154 11.2627 16.4833 10.2754 16.8111 9.15825C17.1389 8.04107 17.1104 6.84949 16.7295 5.74928C16.3486 4.64907 15.6342 3.69494 14.6858 3.01964C13.7373 2.34434 12.602 1.98145 11.4377 1.98145C10.2734 1.98145 9.13807 2.34434 8.18963 3.01964C7.24119 3.69494 6.52681 4.64907 6.14589 5.74928C5.76497 6.84949 5.73644 8.04107 6.06427 9.15825C6.3921 10.2754 7.05999 11.2627 7.97503 11.9826C6.4071 12.6107 5.03903 13.6526 4.01666 14.9972C2.99429 16.3417 2.35595 17.9385 2.16969 19.6172C2.15621 19.7398 2.167 19.8638 2.20145 19.9822C2.2359 20.1006 2.29333 20.2111 2.37046 20.3073C2.52624 20.5016 2.75282 20.626 3.00036 20.6532C3.24789 20.6805 3.49611 20.6083 3.6904 20.4525C3.88468 20.2967 4.00913 20.0701 4.03636 19.8226C4.2413 17.9981 5.11127 16.3131 6.48003 15.0894C7.84879 13.8658 9.6204 13.1894 11.4564 13.1894C13.2923 13.1894 15.0639 13.8658 16.4327 15.0894C17.8015 16.3131 18.6714 17.9981 18.8764 19.8226C18.9017 20.0519 19.0112 20.2637 19.1835 20.4171C19.3559 20.5705 19.579 20.6546 19.8097 20.6532H19.9124C20.157 20.6251 20.3806 20.5014 20.5345 20.3091C20.6883 20.1168 20.7599 19.8714 20.7337 19.6266C20.5466 17.943 19.9048 16.3422 18.8772 14.9956C17.8495 13.649 16.4748 12.6074 14.9004 11.9826ZM11.4377 11.3199C10.6993 11.3199 9.97751 11.101 9.36356 10.6907C8.74962 10.2805 8.27111 9.69744 7.98854 9.01526C7.70597 8.33308 7.63204 7.58243 7.77609 6.85824C7.92015 6.13404 8.27571 5.46883 8.79783 4.94671C9.31994 4.42459 9.98516 4.06903 10.7094 3.92498C11.4336 3.78092 12.1842 3.85486 12.8664 4.13742C13.5486 4.41999 14.1316 4.8985 14.5418 5.51245C14.9521 6.12639 15.171 6.84819 15.171 7.58658C15.171 8.57672 14.7777 9.5263 14.0776 10.2264C13.3774 10.9266 12.4278 11.3199 11.4377 11.3199Z" fill="white"/>
</svg>