<svg xmlns="http://www.w3.org/2000/svg" width="15" height="15" viewBox="0 0 15 15" fill="none">
  <path d="M12.4999 6.24987C12.4999 6.08411 12.434 5.92514 12.3168 5.80792C12.1996 5.69071 12.0406 5.62487 11.8749 5.62487C11.7091 5.62487 11.5501 5.69071 11.4329 5.80792C11.3157 5.92514 11.2499 6.08411 11.2499 6.24987H12.4999ZM3.74987 6.24987C3.74987 6.08411 3.68402 5.92514 3.56681 5.80792C3.4496 5.69071 3.29063 5.62487 3.12487 5.62487C2.95911 5.62487 2.80014 5.69071 2.68293 5.80792C2.56572 5.92514 2.49987 6.08411 2.49987 6.24987H3.74987ZM12.683 7.94174C12.8009 8.05559 12.9587 8.11859 13.1226 8.11716C13.2865 8.11574 13.4432 8.05001 13.5591 7.93413C13.675 7.81825 13.7407 7.66149 13.7422 7.49762C13.7436 7.33374 13.6806 7.17587 13.5667 7.05799L12.683 7.94174ZM7.49987 1.87487L7.94174 1.43299C7.82454 1.31582 7.6656 1.25 7.49987 1.25C7.33414 1.25 7.1752 1.31582 7.05799 1.43299L7.49987 1.87487ZM1.43299 7.05799C1.3733 7.11565 1.32568 7.18461 1.29293 7.26086C1.26017 7.33712 1.24293 7.41913 1.24221 7.50212C1.24149 7.5851 1.2573 7.6674 1.28873 7.74421C1.32015 7.82102 1.36656 7.89081 1.42525 7.94949C1.48393 8.00817 1.55371 8.05458 1.63052 8.086C1.70733 8.11743 1.78963 8.13324 1.87262 8.13252C1.95561 8.1318 2.03762 8.11456 2.11387 8.08181C2.19012 8.04905 2.25909 8.00144 2.31674 7.94174L1.43299 7.05799ZM4.37487 13.7499H10.6249V12.4999H4.37487V13.7499ZM12.4999 11.8749V6.24987H11.2499V11.8749H12.4999ZM3.74987 11.8749V6.24987H2.49987V11.8749H3.74987ZM13.5667 7.05799L7.94174 1.43299L7.05799 2.31674L12.683 7.94174L13.5667 7.05799ZM7.05799 1.43299L1.43299 7.05799L2.31674 7.94174L7.94174 2.31674L7.05799 1.43299ZM10.6249 13.7499C11.1221 13.7499 11.5991 13.5523 11.9507 13.2007C12.3023 12.8491 12.4999 12.3721 12.4999 11.8749H11.2499C11.2499 12.0406 11.184 12.1996 11.0668 12.3168C10.9496 12.434 10.7906 12.4999 10.6249 12.4999V13.7499ZM4.37487 12.4999C4.20911 12.4999 4.05014 12.434 3.93293 12.3168C3.81572 12.1996 3.74987 12.0406 3.74987 11.8749H2.49987C2.49987 12.3721 2.69741 12.8491 3.04904 13.2007C3.40067 13.5523 3.87759 13.7499 4.37487 13.7499V12.4999Z" fill="#486FD8"/>
</svg>