<svg xmlns="http://www.w3.org/2000/svg" width="15" height="15" viewBox="0 0 15 15" fill="none">
  <path d="M2.5 7.5C2.5 7.66576 2.56585 7.82473 2.68306 7.94194C2.80027 8.05915 2.95924 8.125 3.125 8.125H7.86875L6.43125 9.55625C6.37267 9.61435 6.32617 9.68348 6.29444 9.75964C6.26271 9.8358 6.24638 9.91749 6.24638 10C6.24638 10.0825 6.26271 10.1642 6.29444 10.2404C6.32617 10.3165 6.37267 10.3856 6.43125 10.4437C6.48935 10.5023 6.55848 10.5488 6.63464 10.5806C6.7108 10.6123 6.79249 10.6286 6.875 10.6286C6.95751 10.6286 7.0392 10.6123 7.11536 10.5806C7.19152 10.5488 7.26065 10.5023 7.31875 10.4437L9.81875 7.94375C9.87565 7.88431 9.92025 7.81422 9.95 7.7375C10.0125 7.58534 10.0125 7.41466 9.95 7.2625C9.92025 7.18578 9.87565 7.11569 9.81875 7.05625L7.31875 4.55625C7.26048 4.49798 7.19129 4.45175 7.11516 4.42021C7.03902 4.38868 6.95741 4.37244 6.875 4.37244C6.79259 4.37244 6.71098 4.38868 6.63484 4.42021C6.55871 4.45175 6.48952 4.49798 6.43125 4.55625C6.37298 4.61452 6.32675 4.68371 6.29521 4.75984C6.26367 4.83598 6.24744 4.91759 6.24744 5C6.24744 5.08241 6.26367 5.16402 6.29521 5.24016C6.32675 5.31629 6.37298 5.38548 6.43125 5.44375L7.86875 6.875H3.125C2.95924 6.875 2.80027 6.94085 2.68306 7.05806C2.56585 7.17527 2.5 7.33424 2.5 7.5ZM10.625 1.25H4.375C3.87772 1.25 3.40081 1.44754 3.04917 1.79917C2.69754 2.15081 2.5 2.62772 2.5 3.125V5C2.5 5.16576 2.56585 5.32473 2.68306 5.44194C2.80027 5.55915 2.95924 5.625 3.125 5.625C3.29076 5.625 3.44973 5.55915 3.56694 5.44194C3.68415 5.32473 3.75 5.16576 3.75 5V3.125C3.75 2.95924 3.81585 2.80027 3.93306 2.68306C4.05027 2.56585 4.20924 2.5 4.375 2.5H10.625C10.7908 2.5 10.9497 2.56585 11.0669 2.68306C11.1842 2.80027 11.25 2.95924 11.25 3.125V11.875C11.25 12.0408 11.1842 12.1997 11.0669 12.3169C10.9497 12.4342 10.7908 12.5 10.625 12.5H4.375C4.20924 12.5 4.05027 12.4342 3.93306 12.3169C3.81585 12.1997 3.75 12.0408 3.75 11.875V10C3.75 9.83424 3.68415 9.67527 3.56694 9.55806C3.44973 9.44085 3.29076 9.375 3.125 9.375C2.95924 9.375 2.80027 9.44085 2.68306 9.55806C2.56585 9.67527 2.5 9.83424 2.5 10V11.875C2.5 12.3723 2.69754 12.8492 3.04917 13.2008C3.40081 13.5525 3.87772 13.75 4.375 13.75H10.625C11.1223 13.75 11.5992 13.5525 11.9508 13.2008C12.3025 12.8492 12.5 12.3723 12.5 11.875V3.125C12.5 2.62772 12.3025 2.15081 11.9508 1.79917C11.5992 1.44754 11.1223 1.25 10.625 1.25Z" fill="#486FD8"/>
</svg>