<svg xmlns="http://www.w3.org/2000/svg" width="15" height="15" viewBox="0 0 15 15" fill="none">
  <path d="M1.73077 2.30762C0.775385 2.30762 0 3.083 0 4.03839V10.9615C0 11.9168 0.775385 12.6922 1.73077 12.6922H13.2692C14.2246 12.6922 15 11.9168 15 10.9615V4.03839C15 3.083 14.2246 2.30762 13.2692 2.30762H1.73077ZM1.73077 3.46146H13.2692C13.5871 3.46146 13.8462 3.7205 13.8462 4.03839V4.32685L7.5 7.75262L1.15385 4.32685V4.03839C1.15385 3.7205 1.41288 3.46146 1.73077 3.46146ZM1.15385 4.48896L4.92173 7.42781L1.22596 11.2142L5.73346 8.00473L7.5 9.14069L9.26712 8.00473L13.774 11.2142L10.0783 7.42781L13.8462 4.48896V10.9615C13.843 11.0503 13.8182 11.137 13.774 11.2142C13.6788 11.4017 13.4937 11.5384 13.2692 11.5384H1.73077C1.50635 11.5384 1.32115 11.4022 1.22596 11.2142C1.18188 11.1372 1.15713 11.0501 1.15385 10.9615V4.48896Z" fill="#486FD8"/>
</svg>