<svg xmlns="http://www.w3.org/2000/svg" width="15" height="15" viewBox="0 0 15 15" fill="none">
  <path d="M9.375 4.6875C9.375 5.18478 9.17746 5.66169 8.82582 6.01333C8.47419 6.36496 7.99728 6.5625 7.5 6.5625C7.00272 6.5625 6.52581 6.36496 6.17417 6.01333C5.82254 5.66169 5.625 5.18478 5.625 4.6875C5.625 4.19022 5.82254 3.71331 6.17417 3.36167C6.52581 3.01004 7.00272 2.8125 7.5 2.8125C7.99728 2.8125 8.47419 3.01004 8.82582 3.36167C9.17746 3.71331 9.375 4.19022 9.375 4.6875ZM4.6875 11.25C4.56318 11.25 4.44395 11.2994 4.35604 11.3873C4.26814 11.4752 4.21875 11.5944 4.21875 11.7188C4.21875 11.8431 4.26814 11.9623 4.35604 12.0502C4.44395 12.1381 4.56318 12.1875 4.6875 12.1875H10.3125C10.4368 12.1875 10.556 12.1381 10.644 12.0502C10.7319 11.9623 10.7812 11.8431 10.7812 11.7188C10.7812 11.5944 10.7319 11.4752 10.644 11.3873C10.556 11.2994 10.4368 11.25 10.3125 11.25H4.6875ZM2.34375 2.57812C2.34375 2.143 2.5166 1.7257 2.82428 1.41803C3.13195 1.11035 3.54925 0.9375 3.98438 0.9375H11.0156C11.4507 0.9375 11.868 1.11035 12.1757 1.41803C12.4834 1.7257 12.6562 2.143 12.6562 2.57812V12.4219C12.6562 12.857 12.4834 13.2743 12.1757 13.582C11.868 13.8896 11.4507 14.0625 11.0156 14.0625H3.98438C3.54925 14.0625 3.13195 13.8896 2.82428 13.582C2.5166 13.2743 2.34375 12.857 2.34375 12.4219V2.57812ZM3.98438 1.875C3.79789 1.875 3.61905 1.94908 3.48719 2.08094C3.35533 2.2128 3.28125 2.39164 3.28125 2.57812V9.375H4.6875V7.96875C4.6875 7.72011 4.78627 7.48165 4.96209 7.30584C5.1379 7.13002 5.37636 7.03125 5.625 7.03125H9.375C9.62364 7.03125 9.8621 7.13002 10.0379 7.30584C10.2137 7.48165 10.3125 7.72011 10.3125 7.96875V9.375H11.7188V2.57812C11.7188 2.39164 11.6447 2.2128 11.5128 2.08094C11.3809 1.94908 11.2021 1.875 11.0156 1.875H3.98438ZM3.28125 12.4219C3.28125 12.6084 3.35533 12.7872 3.48719 12.9191C3.61905 13.0509 3.79789 13.125 3.98438 13.125H11.0156C11.2021 13.125 11.3809 13.0509 11.5128 12.9191C11.6447 12.7872 11.7188 12.6084 11.7188 12.4219V10.3125H3.28125V12.4219Z" fill="#486FD8"/>
</svg>