<svg xmlns="http://www.w3.org/2000/svg" width="15" height="15" viewBox="0 0 15 15" fill="none">
  <path d="M3.125 3.125H4.375V3.75C4.375 4.4375 4.9375 5 5.625 5H9.375C10.0625 5 10.625 4.4375 10.625 3.75V3.125H11.875V6.25H13.125V3.125C13.125 2.4375 12.5625 1.875 11.875 1.875H9.2625C9 1.15 8.3125 0.625 7.5 0.625C6.6875 0.625 6 1.15 5.7375 1.875H3.125C2.4375 1.875 1.875 2.4375 1.875 3.125V11.875C1.875 12.5625 2.4375 13.125 3.125 13.125H6.875V11.875H3.125V3.125ZM7.5 1.875C7.84375 1.875 8.125 2.15625 8.125 2.5C8.125 2.84375 7.84375 3.125 7.5 3.125C7.15625 3.125 6.875 2.84375 6.875 2.5C6.875 2.15625 7.15625 1.875 7.5 1.875Z" fill="#486FD8"/>
  <path d="M13.5906 7.65605C13.3344 7.3998 12.9094 7.3998 12.6531 7.65605L9.69063 10.6248L8.27813 9.21855C8.02188 8.9623 7.60313 8.9623 7.34063 9.21855C7.08438 9.4748 7.08438 9.8998 7.34063 10.1561L9.24688 12.0561C9.49063 12.2998 9.88437 12.2998 10.1281 12.0561L13.5844 8.59355C13.8469 8.3373 13.8469 7.9123 13.5906 7.65605Z" fill="#486FD8"/>
</svg>