<svg xmlns="http://www.w3.org/2000/svg" width="15" height="15" viewBox="0 0 15 15" fill="none">
  <path d="M8.75 7.5H9.6875V9.2625L11.2125 10.1437L10.7438 10.9563L8.75 9.80625V7.5ZM2.5 1.25H11.25C11.5815 1.25 11.8995 1.3817 12.1339 1.61612C12.3683 1.85054 12.5 2.16848 12.5 2.5V6.3125C13.275 7.1 13.75 8.18125 13.75 9.375C13.75 10.5353 13.2891 11.6481 12.4686 12.4686C11.6481 13.2891 10.5353 13.75 9.375 13.75C8.18125 13.75 7.1 13.275 6.3125 12.5H2.5C2.16848 12.5 1.85054 12.3683 1.61612 12.1339C1.3817 11.8995 1.25 11.5815 1.25 11.25V2.5C1.25 2.16848 1.3817 1.85054 1.61612 1.61612C1.85054 1.3817 2.16848 1.25 2.5 1.25ZM2.5 9.375V11.25H5.41875C5.15 10.6812 5 10.0437 5 9.375H2.5ZM2.5 5H6.25V3.125H2.5V5ZM11.25 5V3.125H7.5V5H11.25ZM2.5 8.125H5.18125C5.39375 7.40625 5.7875 6.7625 6.3125 6.25H2.5V8.125ZM9.375 6.34375C8.57106 6.34375 7.80005 6.66311 7.23158 7.23158C6.66311 7.80005 6.34375 8.57106 6.34375 9.375C6.34375 11.05 7.7 12.4062 9.375 12.4062C9.77307 12.4062 10.1672 12.3278 10.535 12.1755C10.9028 12.0232 11.2369 11.7999 11.5184 11.5184C11.7999 11.2369 12.0232 10.9028 12.1755 10.535C12.3278 10.1672 12.4062 9.77307 12.4062 9.375C12.4062 7.7 11.05 6.34375 9.375 6.34375Z" fill="#8D939C"/>
</svg>