<svg xmlns="http://www.w3.org/2000/svg" width="70" height="70" viewBox="0 0 70 70" fill="none">
  <circle cx="35" cy="35" r="34.5" stroke="#C4C0C0"/>
  <path d="M42.0555 36.3477C43.9274 34.883 45.2938 32.8745 45.9644 30.6015C46.6351 28.3286 46.5767 25.9042 45.7975 23.6658C45.0182 21.4274 43.5567 19.4862 41.6165 18.1122C39.6762 16.7383 37.3535 16 34.9717 16C32.5898 16 30.2672 16.7383 28.3269 18.1122C26.3866 19.4862 24.9252 21.4274 24.1459 23.6658C23.3666 25.9042 23.3082 28.3286 23.9789 30.6015C24.6496 32.8745 26.0159 34.883 27.8879 36.3477C24.6803 37.6258 21.8815 39.7455 19.79 42.481C17.6985 45.2165 16.3926 48.4652 16.0115 51.8808C15.9839 52.1301 16.006 52.3825 16.0765 52.6233C16.147 52.8642 16.2644 53.0889 16.4222 53.2847C16.7409 53.68 17.2045 53.9331 17.7109 53.9885C18.2173 54.0439 18.7251 53.897 19.1225 53.5801C19.52 53.2631 19.7746 52.8021 19.8303 52.2985C20.2496 48.5865 22.0293 45.1583 24.8295 42.6688C27.6296 40.1793 31.2539 38.803 35.0099 38.803C38.7658 38.803 42.3901 40.1793 45.1903 42.6688C47.9904 45.1583 49.7702 48.5865 50.1895 52.2985C50.2414 52.7651 50.4652 53.196 50.8178 53.5081C51.1705 53.8202 51.6268 53.9914 52.0988 53.9885H52.3089C52.8094 53.9313 53.2669 53.6796 53.5816 53.2883C53.8963 52.8971 54.0428 52.3979 53.9891 51.8997C53.6063 48.4745 52.2934 45.2175 50.1911 42.4778C48.0888 39.7381 45.2764 37.619 42.0555 36.3477ZM34.9717 34.9995C33.4611 34.9995 31.9845 34.554 30.7285 33.7194C29.4725 32.8848 28.4936 31.6985 27.9155 30.3106C27.3375 28.9227 27.1862 27.3954 27.4809 25.922C27.7756 24.4486 28.503 23.0952 29.5711 22.033C30.6393 20.9707 32.0001 20.2473 33.4817 19.9542C34.9632 19.6611 36.4989 19.8115 37.8944 20.3864C39.29 20.9613 40.4828 21.9349 41.3221 23.184C42.1613 24.4331 42.6092 25.9016 42.6092 27.4039C42.6092 29.4184 41.8045 31.3503 40.3722 32.7748C38.9399 34.1992 36.9973 34.9995 34.9717 34.9995Z" fill="#486FD8"/>
</svg>