<svg xmlns="http://www.w3.org/2000/svg" width="15" height="15" viewBox="0 0 15 15" fill="none">
  <path d="M12.4393 7.91237C12.3391 7.79832 12.2838 7.65169 12.2838 7.49987C12.2838 7.34806 12.3391 7.20143 12.4393 7.08737L13.2393 6.18737C13.3274 6.08904 13.3822 5.96531 13.3956 5.83394C13.4091 5.70257 13.3806 5.5703 13.3143 5.45612L12.0643 3.29362C11.9986 3.17957 11.8986 3.08917 11.7785 3.0353C11.6584 2.98143 11.5244 2.96685 11.3955 2.99362L10.2205 3.23112C10.071 3.26202 9.91536 3.23712 9.78295 3.16112C9.65053 3.08513 9.55052 2.9633 9.50177 2.81862L9.12052 1.67487C9.07859 1.55074 8.9987 1.44291 8.89216 1.36665C8.78561 1.29039 8.65779 1.24954 8.52677 1.24987H6.02677C5.89047 1.24276 5.7556 1.28045 5.64274 1.35719C5.52989 1.43394 5.44525 1.54551 5.40177 1.67487L5.05177 2.81862C5.00302 2.9633 4.903 3.08513 4.77059 3.16112C4.63817 3.23712 4.48253 3.26202 4.33302 3.23112L3.12677 2.99362C3.00461 2.97636 2.88008 2.99564 2.76886 3.04902C2.65764 3.10241 2.5647 3.18752 2.50177 3.29362L1.25177 5.45612C1.18374 5.56903 1.15316 5.70055 1.16438 5.83189C1.17561 5.96322 1.22807 6.08765 1.31427 6.18737L2.10802 7.08737C2.20822 7.20143 2.26348 7.34806 2.26348 7.49987C2.26348 7.65169 2.20822 7.79832 2.10802 7.91237L1.31427 8.81237C1.22807 8.9121 1.17561 9.03652 1.16438 9.16786C1.15316 9.29919 1.18374 9.43072 1.25177 9.54362L2.50177 11.7061C2.56745 11.8202 2.66747 11.9106 2.78755 11.9644C2.90763 12.0183 3.04166 12.0329 3.17052 12.0061L4.34552 11.7686C4.49503 11.7377 4.65067 11.7626 4.78309 11.8386C4.9155 11.9146 5.01552 12.0364 5.06427 12.1811L5.44552 13.3249C5.489 13.4542 5.57364 13.5658 5.68649 13.6426C5.79935 13.7193 5.93422 13.757 6.07052 13.7499H8.57052C8.70154 13.7502 8.82936 13.7094 8.93591 13.6331C9.04246 13.5568 9.12234 13.449 9.16427 13.3249L9.54552 12.1811C9.59427 12.0364 9.69428 11.9146 9.8267 11.8386C9.95911 11.7626 10.1148 11.7377 10.2643 11.7686L11.4393 12.0061C11.5681 12.0329 11.7022 12.0183 11.8222 11.9644C11.9423 11.9106 12.0423 11.8202 12.108 11.7061L13.358 9.54362C13.4244 9.42944 13.4529 9.29718 13.4394 9.16581C13.4259 9.03443 13.3712 8.91071 13.283 8.81237L12.4393 7.91237ZM11.508 8.74987L12.008 9.31237L11.208 10.6999L10.4705 10.5499C10.0204 10.4579 9.55212 10.5343 9.15464 10.7647C8.75715 10.9952 8.45811 11.3635 8.31427 11.7999L8.07677 12.4999H6.47677L6.25177 11.7874C6.10793 11.351 5.80888 10.9827 5.41139 10.7522C5.01391 10.5218 4.54565 10.4454 4.09552 10.5374L3.35802 10.6874L2.54552 9.30612L3.04552 8.74362C3.35299 8.39986 3.52297 7.95483 3.52297 7.49362C3.52297 7.03242 3.35299 6.58739 3.04552 6.24362L2.54552 5.68112L3.34552 4.30612L4.08302 4.45612C4.53315 4.54814 5.00141 4.47167 5.39889 4.24125C5.79638 4.01082 6.09543 3.64247 6.23927 3.20612L6.47677 2.49987H8.07677L8.31427 3.21237C8.45811 3.64872 8.75715 4.01707 9.15464 4.2475C9.55212 4.47792 10.0204 4.55439 10.4705 4.46237L11.208 4.31237L12.008 5.69987L11.508 6.26237C11.204 6.60535 11.0361 7.0478 11.0361 7.50612C11.0361 7.96445 11.204 8.4069 11.508 8.74987ZM7.27677 4.99987C6.78231 4.99987 6.29896 5.1465 5.88784 5.4212C5.47672 5.6959 5.15629 6.08635 4.96707 6.54316C4.77785 6.99998 4.72834 7.50265 4.8248 7.9876C4.92127 8.47255 5.15937 8.91801 5.509 9.26764C5.85863 9.61727 6.30409 9.85537 6.78904 9.95184C7.27399 10.0483 7.77666 9.99879 8.23347 9.80957C8.69029 9.62035 9.08074 9.29992 9.35544 8.8888C9.63014 8.47768 9.77677 7.99433 9.77677 7.49987C9.77677 6.83683 9.51337 6.20095 9.04453 5.73211C8.57569 5.26327 7.93981 4.99987 7.27677 4.99987ZM7.27677 8.74987C7.02954 8.74987 6.78786 8.67656 6.5823 8.53921C6.37674 8.40186 6.21653 8.20663 6.12192 7.97823C6.02731 7.74982 6.00255 7.49849 6.05078 7.25601C6.09902 7.01353 6.21807 6.79081 6.39288 6.61599C6.5677 6.44117 6.79043 6.32212 7.0329 6.27389C7.27538 6.22566 7.52671 6.25041 7.75512 6.34502C7.98353 6.43963 8.17875 6.59985 8.3161 6.80541C8.45345 7.01097 8.52677 7.25265 8.52677 7.49987C8.52677 7.83139 8.39507 8.14934 8.16065 8.38376C7.92623 8.61818 7.60829 8.74987 7.27677 8.74987Z" fill="#8D939C"/>
</svg>